<svg width="256" height="256" viewBox="0 0 256 256" fill="none" xmlns="http://www.w3.org/2000/svg">
<rect x="8" y="8" width="240" height="240" rx="40" fill="#DFDAF1"/>
<rect x="8" y="8" width="240" height="240" rx="40" stroke="#4C0F89" stroke-width="16"/>
<path d="M169.667 111.333C175.5 105.5 183.75 111.333 190.5 111.333C196.025 111.333 201.324 109.138 205.231 105.231C209.138 101.324 211.333 96.0253 211.333 90.5C211.333 84.9747 209.138 79.6756 205.231 75.7686C201.324 71.8616 196.025 69.6667 190.5 69.6667C189.395 69.6667 188.335 69.2277 187.554 68.4463C186.772 67.6649 186.333 66.6051 186.333 65.5C186.333 59.9747 184.138 54.6756 180.231 50.7686C176.324 46.8616 171.025 44.6667 165.5 44.6667C159.975 44.6667 154.676 46.8616 150.769 50.7686C146.862 54.6756 144.667 59.9747 144.667 65.5C144.667 72.25 150.5 80.5 144.667 86.3333L86.3333 144.667C80.5 150.5 72.25 144.667 65.5 144.667C59.9747 144.667 54.6756 146.862 50.7686 150.769C46.8616 154.676 44.6667 159.975 44.6667 165.5C44.6667 171.025 46.8616 176.324 50.7686 180.231C54.6756 184.138 59.9747 186.333 65.5 186.333C67.8333 186.333 69.6667 188.167 69.6667 190.5C69.6667 196.025 71.8616 201.324 75.7686 205.231C79.6756 209.138 84.9747 211.333 90.5 211.333C96.0253 211.333 101.324 209.138 105.231 205.231C109.138 201.324 111.333 196.025 111.333 190.5C111.333 183.75 105.5 175.5 111.333 169.667L169.667 111.333Z" stroke="#4C0F89" stroke-width="16" stroke-linecap="round" stroke-linejoin="round"/>
</svg>
