<svg width="104" height="104" viewBox="0 0 104 104" fill="none" xmlns="http://www.w3.org/2000/svg">
<rect width="104" height="104" fill="#4C0F89"/>
<path d="M67.2083 46C69.3375 43.9 72.3488 46 74.8125 46C76.8293 46 78.7634 45.2098 80.1895 43.8033C81.6155 42.3968 82.4167 40.4891 82.4167 38.5C82.4167 36.5109 81.6155 34.6032 80.1895 33.1967C78.7634 31.7902 76.8293 31 74.8125 31C74.4092 31 74.0223 30.842 73.7371 30.5607C73.4519 30.2794 73.2917 29.8978 73.2917 29.5C73.2917 27.5109 72.4905 25.6032 71.0645 24.1967C69.6384 22.7902 67.7043 22 65.6875 22C63.6708 22 61.7366 22.7902 60.3106 24.1967C58.8845 25.6032 58.0833 27.5109 58.0833 29.5C58.0833 31.93 60.2125 34.9 58.0833 37L36.7917 58C34.6625 60.1 31.6513 58 29.1875 58C27.1708 58 25.2366 58.7902 23.8106 60.1967C22.3845 61.6032 21.5833 63.5109 21.5833 65.5C21.5833 67.4891 22.3845 69.3968 23.8106 70.8033C25.2366 72.2098 27.1708 73 29.1875 73C30.0392 73 30.7083 73.66 30.7083 74.5C30.7083 76.4891 31.5095 78.3968 32.9356 79.8033C34.3616 81.2098 36.2958 82 38.3125 82C40.3293 82 42.2634 81.2098 43.6895 79.8033C45.1155 78.3968 45.9167 76.4891 45.9167 74.5C45.9167 72.07 43.7875 69.1 45.9167 67L67.2083 46Z" stroke="#DFDAF1" stroke-width="5" stroke-linecap="round" stroke-linejoin="round"/>
</svg>
